# xmcd
#
# Track frame offsets:
#	150
#	22897
#	41142
#	60010
#	83462
#	101945
#	122387
#	143430
#	165815
#	183810
#
# Disc length: 2734 seconds
#
# Revision: 1
# Processed by: cddbd v1.4PL0 Copyright (c) Steve Scherf et al.
# Submitted via: EasyCDDAExtractor 5.1.0
#
DISCID=620aac0a
DTITLE=Ollie Nighetingale - I'll Drink Your Bath Water, Baby
DYEAR=1995
DGENRE=Blues
TTITLE0=I'll Drink Your Bath Water, Baby
TTITLE1=Changing For The Better
TTITLE2=Cafe Woman
TTITLE3=Hold On
TTITLE4=I'm Ready To Party
TTITLE5=Babysitting
TTITLE6=You And Louise
TTITLE7=She's In A Midnight Mood In The Middle Of The Day
TTITLE8=That's What You Are To Me
TTITLE9=I Can Show You Better Than I Can Tell You
EXTD=
EXTT0=
EXTT1=
EXTT2=
EXTT3=
EXTT4=
EXTT5=
EXTT6=
EXTT7=
EXTT8=
EXTT9=
PLAYORDER=
